<svg xmlns="http://www.w3.org/2000/svg" width="1080" height="1920" viewBox="0 0 1080 1920">
  <defs>
    <linearGradient id="paper" x1="0" y1="0" x2="1" y2="1">
      <stop offset="0" stop-color="#fff2cf"/>
      <stop offset="1" stop-color="#d8bd82"/>
    </linearGradient>
    <linearGradient id="teal" x1="0" y1="0" x2="0" y2="1">
      <stop offset="0" stop-color="#14515a"/>
      <stop offset="1" stop-color="#06191d"/>
    </linearGradient>
    <filter id="softShadow" x="-20%" y="-20%" width="140%" height="140%">
      <feDropShadow dx="0" dy="10" stdDeviation="10" flood-color="#001014" flood-opacity="0.34"/>
    </filter>
  </defs>
  
      <rect width="1080" height="1920" fill="#0b252a"/>
      <rect x="0" y="0" width="1080" height="840" fill="#0f3d45"/>
      <circle cx="888" cy="188" r="180" fill="#d7b15f" opacity=".12"/>
      <rect x="70" y="130" width="940" height="92" rx="10" fill="#f2dfbd" opacity=".9"/>
      <text x="540" y="190" text-anchor="middle" font-family="Arial, sans-serif" font-size="46" font-weight="700" fill="#15363a">NGÂN HÀNG NHÂN ÁI</text>
      <rect x="110" y="288" width="860" height="720" rx="28" fill="#103f46" stroke="#d6a84e" stroke-width="8"/>
      <rect x="170" y="360" width="300" height="420" rx="12" fill="#e5c986" opacity=".23"/>
      <rect x="610" y="360" width="300" height="420" rx="12" fill="#e5c986" opacity=".23"/>
      <path d="M92 1060h896c36 0 68 31 68 68v170H24v-170c0-37 31-68 68-68z" fill="#c99a46" filter="url(#softShadow)"/>
      <path d="M70 1115h940v210H70z" fill="#71492c" opacity=".62"/>
      <rect x="168" y="1096" width="260" height="74" rx="8" fill="#f5e5bf"/>
      <rect x="672" y="1098" width="230" height="64" rx="8" fill="#f5e5bf"/>
      <rect x="0" y="1260" width="1080" height="660" fill="#07191c"/>
  <path d="M0 1260h1080v660H0z" fill="url(#teal)" opacity=".85"/>
  <path d="M0 1370c220-50 390-30 560 12 230 56 352 34 520-20v558H0z" fill="#0b2b31" opacity=".7"/>
    
</svg>