<svg xmlns="http://www.w3.org/2000/svg" width="1080" height="1920" viewBox="0 0 1080 1920">
  <defs>
    <linearGradient id="paper" x1="0" y1="0" x2="1" y2="1">
      <stop offset="0" stop-color="#fff2cf"/>
      <stop offset="1" stop-color="#d8bd82"/>
    </linearGradient>
    <linearGradient id="teal" x1="0" y1="0" x2="0" y2="1">
      <stop offset="0" stop-color="#14515a"/>
      <stop offset="1" stop-color="#06191d"/>
    </linearGradient>
    <filter id="softShadow" x="-20%" y="-20%" width="140%" height="140%">
      <feDropShadow dx="0" dy="10" stdDeviation="10" flood-color="#001014" flood-opacity="0.34"/>
    </filter>
  </defs>
  
      <rect width="1080" height="1920" fill="#0b2022"/>
      <rect x="0" y="0" width="1080" height="1220" fill="#7a3430"/>
      <rect x="70" y="120" width="940" height="860" rx="24" fill="#a4513f" opacity=".5"/>
      <rect x="380" y="140" width="320" height="280" rx="18" fill="#502320" stroke="#d9ae54" stroke-width="8"/>
      <circle cx="540" cy="270" r="76" fill="#f1dfb8"/>
      <rect x="448" y="372" width="184" height="34" rx="8" fill="#d9ae54"/>
      <rect x="185" y="540" width="710" height="370" rx="20" fill="#ecd7a8" opacity=".2"/>
      <path d="M150 960h780l80 285H70z" fill="#301b19" filter="url(#softShadow)"/>
      <rect x="256" y="1020" width="568" height="80" rx="18" fill="#f2dfbd"/>
      <rect x="0" y="1260" width="1080" height="660" fill="#07191c"/>
  <path d="M0 1260h1080v660H0z" fill="url(#teal)" opacity=".85"/>
  <path d="M0 1370c220-50 390-30 560 12 230 56 352 34 520-20v558H0z" fill="#0b2b31" opacity=".7"/>
    
</svg>