<svg xmlns="http://www.w3.org/2000/svg" width="1080" height="1920" viewBox="0 0 1080 1920">
  <defs>
    <linearGradient id="paper" x1="0" y1="0" x2="1" y2="1">
      <stop offset="0" stop-color="#fff2cf"/>
      <stop offset="1" stop-color="#d8bd82"/>
    </linearGradient>
    <linearGradient id="teal" x1="0" y1="0" x2="0" y2="1">
      <stop offset="0" stop-color="#14515a"/>
      <stop offset="1" stop-color="#06191d"/>
    </linearGradient>
    <filter id="softShadow" x="-20%" y="-20%" width="140%" height="140%">
      <feDropShadow dx="0" dy="10" stdDeviation="10" flood-color="#001014" flood-opacity="0.34"/>
    </filter>
  </defs>
  
      <rect width="1080" height="1920" fill="#102a28"/>
      <rect width="1080" height="1160" fill="#183c36"/>
      <circle cx="170" cy="190" r="170" fill="#d6a84e" opacity=".18"/>
      <path d="M150 680l390-360 390 360z" fill="#8b302b" stroke="#d6a84e" stroke-width="12"/>
      <rect x="236" y="680" width="608" height="390" fill="#bd8f46"/>
      <rect x="404" y="760" width="272" height="310" rx="18" fill="#2b2a20"/>
      <path d="M88 604c180 36 318 36 452-44 140 82 278 80 452 44" fill="none" stroke="#d6a84e" stroke-width="26"/>
      <rect x="0" y="1260" width="1080" height="660" fill="#07191c"/>
  <path d="M0 1260h1080v660H0z" fill="url(#teal)" opacity=".85"/>
  <path d="M0 1370c220-50 390-30 560 12 230 56 352 34 520-20v558H0z" fill="#0b2b31" opacity=".7"/>
    
</svg>