<svg xmlns="http://www.w3.org/2000/svg" width="720" height="920" viewBox="0 0 720 920">
  <defs>
    <linearGradient id="paper" x1="0" y1="0" x2="1" y2="1">
      <stop offset="0" stop-color="#fff2cf"/>
      <stop offset="1" stop-color="#d8bd82"/>
    </linearGradient>
    <linearGradient id="teal" x1="0" y1="0" x2="0" y2="1">
      <stop offset="0" stop-color="#14515a"/>
      <stop offset="1" stop-color="#06191d"/>
    </linearGradient>
    <filter id="softShadow" x="-20%" y="-20%" width="140%" height="140%">
      <feDropShadow dx="0" dy="10" stdDeviation="10" flood-color="#001014" flood-opacity="0.34"/>
    </filter>
  </defs>
  
    <rect width="720" height="920" fill="none"/>
    <ellipse cx="360" cy="780" rx="250" ry="82" fill="#001014" opacity=".25"/>
    <path d="M178 850c18-178 78-282 182-282s164 104 182 282z" fill="#25415b" filter="url(#softShadow)"/>
    <path d="M208 850c22-118 62-188 152-188s130 70 152 188z" fill="#0a1d21" opacity=".22"/>
    
    <path d="M206 284c14-125 86-198 164-198s155 74 166 198c-82-44-184-48-330 0z" fill="#191512"/>
    <ellipse cx="360" cy="326" rx="126" ry="150" fill="#c98664"/>
    <path d="M252 318c42 18 88 18 132 0" stroke="#33241f" stroke-width="9" stroke-linecap="round" opacity=".9"/>
    <circle cx="312" cy="350" r="9" fill="#1e1715"/>
    <circle cx="410" cy="350" r="9" fill="#1e1715"/>
    <path d="M356 360c-8 36-6 54 22 60" stroke="#8d5f4b" stroke-width="7" fill="none" stroke-linecap="round"/>
    <path d="M318 468c34 30 72 30 104 0" stroke="#6a332e" stroke-width="8" fill="none" stroke-linecap="round"/>
    
    <circle cx="238" cy="390" r="20" fill="#c98664"/>
    <circle cx="482" cy="390" r="20" fill="#c98664"/>
    <path d="M210 608c-28 50-52 118-66 206" stroke="#d7ad5d" stroke-width="18" opacity=".8"/>
    <path d="M510 608c28 50 52 118 66 206" stroke="#d7ad5d" stroke-width="18" opacity=".8"/>
  
</svg>